PathFileType	4	(X/Y/Z)	F:\shared\Remotetake0125-Body25.trc
DataRate	CameraRate	NumFrames	NumMarkers	Units	OrigDataRate	OrigDataStartFrame	OrigNumFrames	useTimeStamp
60		60		4		79		mm		60		450		1799		1																					
Frame#	Time	Timestamp	HeadTop			LHeadFront			LHeadBack			RHeadFront			RHeadBack			C7			T10			CLAV			STRN			LShoulderFront			LShoulderBack			LUArmHigh			LElbow			LElbowIn			LForearm			LWristIn			LWristOut			LHandIn			LHandOut			RShoulderFront			RShoulderBack			RUArmHigh			RElbow			RElbowIn			RForearm			RWristIn			RWristOut			RHandIn			RHandOut			WaistLFront			WaistLSide			WaistLBack			WaistRFront			WaistRSide			WaistRBack			LThigh			LKnee			LKneeIn			LShin			LAnkleOut			LHeel			LMT5			LMT1			LToe			RThigh			RKnee			RKneeIn			RShin			RAnkleOut			RHeel			RMT5			RMT1			RToe			C7			C7			STRN			STRN			LUArmHigh			LForearm			RUArmHigh			RForearm			WaistLFront			WaistLFront			WaistLSide			WaistLSide			WaistLBack			WaistLBack			WaistRFront			WaistRFront			WaistRSide			WaistRSide			WaistRBack			WaistRBack			LThigh			LShin			RThigh			RShin			LShoulderFront			RShoulderFront			
			X1	Y1	Z1	X2	Y2	Z2	X3	Y3	Z3	X4	Y4	Z4	X5	Y5	Z5	X6	Y6	Z6	X7	Y7	Z7	X8	Y8	Z8	X9	Y9	Z9	X10	Y10	Z10	X11	Y11	Z11	X12	Y12	Z12	X13	Y13	Z13	X14	Y14	Z14	X15	Y15	Z15	X16	Y16	Z16	X17	Y17	Z17	X18	Y18	Z18	X19	Y19	Z19	X20	Y20	Z20	X21	Y21	Z21	X22	Y22	Z22	X23	Y23	Z23	X24	Y24	Z24	X25	Y25	Z25	X26	Y26	Z26	X27	Y27	Z27	X28	Y28	Z28	X29	Y29	Z29	X30	Y30	Z30	X31	Y31	Z31	X32	Y32	Z32	X33	Y33	Z33	X34	Y34	Z34	X35	Y35	Z35	X36	Y36	Z36	X37	Y37	Z37	X38	Y38	Z38	X39	Y39	Z39	X40	Y40	Z40	X41	Y41	Z41	X42	Y42	Z42	X43	Y43	Z43	X44	Y44	Z44	X45	Y45	Z45	X46	Y46	Z46	X47	Y47	Z47	X48	Y48	Z48	X49	Y49	Z49	X50	Y50	Z50	X51	Y51	Z51	X52	Y52	Z52	X53	Y53	Z53	X54	Y54	Z54	X55	Y55	Z55	X56	Y56	Z56	X57	Y57	Z57	X58	Y58	Z58	X59	Y59	Z59	X60	Y60	Z60	X61	Y61	Z61	X62	Y62	Z62	X63	Y63	Z63	X64	Y64	Z64	X65	Y65	Z65	X66	Y66	Z66	X67	Y67	Z67	X68	Y68	Z68	X69	Y69	Z69	X70	Y70	Z70	X71	Y71	Z71	X72	Y72	Z72	X73	Y73	Z73	X74	Y74	Z74	X75	Y75	Z75	X76	Y76	Z76	X77	Y77	Z77	X78	Y78	Z78	X79	Y79	Z79	

450	7.483	1702448219089	464.051544	-490.826843	1700.096802	348.644073	-504.106598	1637.571655	400.239136	-610.135559	1583.376831	525.430603	-498.352600	1639.139404	451.592255	-609.259705	1584.277954	469.046204	-596.385559	1380.041016	482.742554	-591.684753	1088.434570	463.109802	-362.681732	1285.427490				342.498199	-396.508423	1345.751831	259.625336	-527.502441	1341.400513	211.891052	-385.737091	1268.993652	218.132401	-258.302582	1230.829712	282.316437	-264.298340	1136.890625																569.966370	-417.385956	1365.678223	628.396912	-552.626221	1338.415894	682.171387	-364.450989	1260.958862																						341.092255	-342.011292	929.499939	289.225311	-447.806427	928.718994	359.654633	-569.437622	940.885254	597.591797	-360.859467	931.710571				544.858765	-572.432800	938.531799	284.289856	-416.923737	614.280884																									621.976685	-376.902649	655.229126	632.030396	-497.879089	453.068237				625.686646	-486.218353	207.250198	605.882812	-515.816223	63.214909	540.443848	-555.904602	80.194847	667.790039	-411.268188	21.843527	546.945190	-376.148743	10.523883	617.695496	-365.638672	45.180218																																																																															
451	7.500	1702448219110	463.787903	-490.307159	1700.082031	348.413849	-503.692505	1637.531494	400.047180	-609.726807	1583.416016	525.150696	-497.975922	1639.160400	451.399841	-608.854126	1584.291992	468.983948	-596.195618	1380.084717	482.770599	-591.794678	1088.510864	462.818329	-362.471252	1285.233398				342.349213	-396.464905	1345.398560	259.611053	-527.423279	1341.235107	212.239746	-385.931122	1267.650757	218.416611	-258.784698	1228.780396	283.339081	-265.494965	1135.203247																569.965454	-417.135101	1365.242920	628.318054	-552.338684	1338.425049	681.864929	-364.695587	1259.857178																						341.006378	-342.034119	929.490051	289.158813	-447.852112	928.791016	359.652985	-569.375122	940.950745	597.574524	-360.907471	931.677734				544.816589	-572.452942	938.476868	284.263947	-416.978302	614.314575																									621.952881	-376.955536	655.192688	632.097778	-497.948853	453.061737				625.572021	-486.322601	207.085739	605.866211	-515.768311	63.276871	540.497131	-555.816467	80.158112	667.770813	-411.312927	21.823244	547.204102	-376.100616	10.933898	617.689880	-365.618103	45.195927																																																																															
452	7.516	1702448219122	463.461823	-489.813782	1700.057495	348.090088	-503.321625	1637.354858	399.799347	-609.312683	1583.374756	524.774780	-497.489868	1639.154907	451.188660	-608.472900	1584.355713	468.915466	-595.852478	1380.185791	482.889435	-591.812439	1088.572144	462.550323	-362.340454	1284.824585				342.062653	-396.358337	1345.023315	259.501862	-527.287964	1340.894287	212.254425	-386.339661	1266.712036	218.528503	-259.286011	1226.904175	283.786743	-266.602386	1133.704346																569.932190	-416.769104	1364.841553	628.202698	-552.068726	1338.534912	681.633667	-364.848663	1258.579590																						341.002167	-342.100525	929.458984	289.176147	-447.861053	928.739075	359.468353	-569.513123	941.018555	597.868103	-360.555756	931.736938				544.803040	-572.455444	938.441162	284.250824	-416.934937	614.299377																									621.826355	-377.012054	655.133118	632.087036	-497.976562	452.976562				625.413696	-486.518341	206.910095	605.885803	-515.804749	63.268009	540.422913	-555.907654	80.133957	667.811829	-411.248993	21.858898	547.487305	-375.989075	11.293262	617.675415	-365.679901	45.248581																																																																															
453	7.533	1702448219141	463.075867	-489.441162	1700.047974	347.834625	-503.000854	1637.296143	399.606354	-609.093750	1583.388428	524.552490	-497.071625	1639.177979	451.010590	-608.191406	1584.410156	468.722809	-595.633667	1380.486694	482.894592	-591.843079	1088.629639	462.408203	-362.242828	1284.557129				341.923737	-396.174438	1344.701782	259.384186	-527.003235	1340.643433	212.413101	-386.710999	1265.587158	218.549454	-259.659485	1225.271973	284.056885	-267.534851	1132.184082																569.739258	-416.379089	1364.565430	628.041016	-551.827026	1338.666992	681.436707	-365.098267	1257.379150																						341.059021	-342.110809	929.267883	289.204651	-447.872528	928.663269	359.644714	-569.776306	940.783508	597.931091	-360.583038	931.648926				544.954712	-572.594421	938.150452	284.271729	-416.935516	614.198486																									621.824097	-377.181976	654.974060	632.056641	-498.478973	452.720673				625.705383	-486.636871	206.886765	605.830994	-516.119995	63.108669	540.330566	-556.276367	80.071655	667.791077	-411.497009	21.487846	547.439575	-375.909912	11.354110	617.733948	-365.867737	44.927261																																																																															
